<?xml version="1.0" standalone="no"?>
<!DOCTYPE svg PUBLIC "-//W3C//DTD SVG 20010904//EN"
 "http://www.w3.org/TR/2001/REC-SVG-20010904/DTD/svg10.dtd">
<svg version="1.0" xmlns="http://www.w3.org/2000/svg"
 width="200.000000pt" height="200.000000pt" viewBox="0 0 200.000000 200.000000"
 preserveAspectRatio="xMidYMid meet">

<g transform="translate(0.000000,200.000000) scale(0.100000,-0.100000)"
fill="#000000" stroke="none">
<path d="M68 1408 l-58 -20 0 -500 c0 -466 1 -500 17 -494 9 4 39 14 65 23
l48 15 0 175 0 175 30 -26 c53 -44 98 -51 320 -50 219 1 267 9 335 55 40 27
81 88 98 144 18 63 15 280 -6 340 -34 98 -104 154 -223 176 -36 7 -133 9 -249
7 -202 -5 -242 -14 -285 -60 l-20 -22 0 42 c0 23 -3 42 -7 41 -5 0 -34 -10
-65 -21z m587 -103 c53 -7 100 -36 122 -77 15 -27 18 -57 18 -163 0 -147 -12
-183 -74 -219 -64 -37 -427 -39 -503 -2 -61 29 -80 83 -80 219 0 62 5 125 12
142 14 38 48 74 80 88 47 19 308 26 425 12z"/>
<path d="M1300 1421 c-85 -12 -126 -29 -159 -66 -66 -76 -68 -210 -4 -277 40
-42 108 -58 247 -59 67 0 188 -4 270 -7 146 -7 148 -8 172 -35 46 -54 24 -128
-44 -147 -52 -14 -456 -12 -507 3 -32 10 -42 19 -50 45 -9 32 -9 32 -77 32
-68 0 -68 0 -68 -28 0 -15 10 -48 23 -72 42 -84 145 -110 432 -110 363 0 446
41 447 221 0 104 -39 163 -126 191 -17 6 -153 13 -302 17 -315 8 -324 10 -324
85 0 81 46 96 300 96 199 0 246 -8 275 -44 19 -23 28 -26 89 -26 58 0 67 2 62
16 -3 9 -6 25 -6 36 0 11 -17 37 -38 58 -60 61 -112 72 -352 75 -113 2 -230 0
-260 -4z"/>
</g>
</svg>
