<svg xmlns="http://www.w3.org/2000/svg" xmlns:xlink="http://www.w3.org/1999/xlink" viewBox="0 0 312 345"><defs><linearGradient id="a" x1="14.09" y1="265.31" x2="297.93" y2="265.31" gradientUnits="userSpaceOnUse"><stop offset="0.44" stop-color="#3ca396"/><stop offset="0.53" stop-color="#044c7d"/></linearGradient><linearGradient id="b" x1="30.51" y1="262.68" x2="281.49" y2="171.34" gradientUnits="userSpaceOnUse"><stop offset="0" stop-color="#6fcec3"/><stop offset="0.33" stop-color="#459ba8"/><stop offset="0.62" stop-color="#277794"/><stop offset="0.85" stop-color="#156087"/><stop offset="1" stop-color="#0e5883"/></linearGradient><linearGradient id="c" x1="156" y1="38.1" x2="156" y2="318.08" gradientUnits="userSpaceOnUse"><stop offset="0.44" stop-color="#67c4be"/><stop offset="0.81" stop-color="#87ecd3"/><stop offset="0.93" stop-color="#92f9da"/></linearGradient></defs><path d="M14.09,217v14.65c.14,2,1.66,4.1,4.51,5.75L146.05,311c5.5,3.17,13.81,3.51,18.56.77l130.12-75.12c2.28-1.32,3.32-3.12,3.19-5V217Z" fill="url(#a)"/><path d="M294.73,222,164.61,297.1c-4.75,2.75-13.06,2.41-18.56-.76L18.6,222.75c-5.49-3.17-6.09-8-1.33-10.71l130.12-75.12c4.75-2.75,13.06-2.41,18.56.76L293.4,211.27C298.89,214.44,299.49,219.24,294.73,222Z" fill="url(#b)"/><rect x="71.17" y="69.15" width="169.66" height="169.66" rx="22.89" fill="url(#c)"/><path d="M88.19,114.22v79.52a6.43,6.43,0,0,0,6.43,6.44H217.38a6.43,6.43,0,0,0,6.43-6.44V114.22a6.43,6.43,0,0,0-6.43-6.43H94.62A6.43,6.43,0,0,0,88.19,114.22Zm31.06,74.38h0a5.38,5.38,0,0,1-5.38-5.38V125.73a5.38,5.38,0,0,1,5.38-5.38h0a5.38,5.38,0,0,1,5.39,5.38v57.49A5.38,5.38,0,0,1,119.25,188.6Zm18.38,0h0a5.38,5.38,0,0,1-5.39-5.38V125.73a5.38,5.38,0,0,1,5.39-5.38h0a5.38,5.38,0,0,1,5.38,5.38v57.49A5.38,5.38,0,0,1,137.63,188.6Zm18.37,0h0a5.39,5.39,0,0,1-5.39-5.38V125.73a5.39,5.39,0,0,1,5.39-5.38h0a5.39,5.39,0,0,1,5.39,5.38v57.49A5.39,5.39,0,0,1,156,188.6Zm18.37,0h0a5.38,5.38,0,0,1-5.38-5.38V125.73a5.38,5.38,0,0,1,5.38-5.38h0a5.38,5.38,0,0,1,5.39,5.38v57.49A5.38,5.38,0,0,1,174.37,188.6Zm18.38,0h0a5.38,5.38,0,0,1-5.39-5.38V125.73a5.38,5.38,0,0,1,5.39-5.38h0a5.38,5.38,0,0,1,5.38,5.38v57.49A5.38,5.38,0,0,1,192.75,188.6Z" fill="#fff"/></svg>