<?xml version="1.0" encoding="UTF-8"?><svg xmlns="http://www.w3.org/2000/svg" viewBox="0 0 136 136"><defs><style>.cls-1{fill:#009bf4;}.cls-2{fill:#99d7fb;}</style></defs><g id="Icon"><path class="cls-1" d="m127.98,70.99v-6h-17.1c-.66-9.6-4.49-18.34-10.45-25.18l12.1-12.1-4.24-4.25-12.1,12.1c-6.84-5.95-15.58-9.78-25.18-10.44V8.02h-6v17.1c-9.6.66-18.34,4.49-25.18,10.44l-12.1-12.1-4.24,4.25,12.1,12.1c-5.95,6.84-9.78,15.58-10.44,25.18H8.05v6h17.1c.64,9.35,4.27,18.13,10.43,25.19l-12.09,12.09,4.24,4.24,12.09-12.09c7.07,6.17,15.84,9.8,25.19,10.43v17.1h6v-17.1c9.6-.66,18.34-4.49,25.18-10.44l12.1,12.1,4.24-4.24-12.1-12.1c5.96-6.84,9.79-15.58,10.45-25.18h17.1Zm-23.11,0c-.64,7.95-3.81,15.19-8.69,20.93l-14.93-14.93h-4.24v4.24l14.93,14.93c-5.74,4.87-12.99,8.04-20.93,8.68v-18.85h-6v18.85c-7.75-.62-15.02-3.62-20.94-8.67l14.94-14.94v-4.24h-4.24l-14.94,14.93c-5.05-5.92-8.05-13.18-8.67-20.93h18.85v-6h-18.85c.64-7.94,3.8-15.19,8.68-20.93l14.93,14.93h4.24v-4.25l-14.92-14.92c5.73-4.88,12.98-8.05,20.92-8.69v18.86h6v-18.86c7.94.64,15.19,3.81,20.93,8.69l-14.93,14.92v4.25h4.24l14.93-14.93c4.88,5.74,8.05,12.99,8.69,20.93h-18.86v6h18.86Z"/></g><g id="_"><polygon class="cls-2" points="80.01 64.99 80.01 70.99 71.01 70.99 71.01 79.99 65.01 79.99 65.01 70.99 56.01 70.99 56.01 64.99 65.01 64.99 65.01 55.99 71.01 55.99 71.01 64.99 80.01 64.99"/></g></svg>